<svg height="496pt" viewBox="0 0 496 496" width="496pt" xmlns="http://www.w3.org/2000/svg" xmlns:xlink="http://www.w3.org/1999/xlink"><linearGradient id="a" gradientUnits="userSpaceOnUse" x1="248" x2="248" y1="496" y2="0"><stop offset="0" stop-color="#9f2fff"/><stop offset="1" stop-color="#0bb1d3"/></linearGradient><path d="m72 40h64v16h-64zm200 264c0 35.289062-25.128906 64-56 64s-56-28.710938-56-64 25.128906-64 56-64 56 28.710938 56 64zm-16 0c0-26.472656-17.945312-48-40-48s-40 21.527344-40 48 17.945312 48 40 48 40-21.527344 40-48zm72 80h-26.664062l17.0625-12.808594c6.015624-4.496094 9.601562-11.679687 9.601562-19.191406 0-13.230469-10.769531-24-24-24s-24 10.769531-24 24v8h16v-8c0-4.414062 3.585938-8 8-8s8 3.585938 8 8c0 2.503906-1.191406 4.894531-3.191406 6.398438l-28.808594 21.601562v20h48zm168-168c0 13.230469-10.769531 24-24 24h-40c-4.414062 0-8 3.585938-8 8s3.585938 8 8 8h16c13.230469 0 24 10.769531 24 24s-10.769531 24-24 24h-80v152c0 22.054688-17.945312 40-40 40h-160c-22.054688 0-40-17.945312-40-40v-200h-104c-4.414062 0-8 3.585938-8 8s3.585938 8 8 8h64c13.230469 0 24 10.769531 24 24s-10.769531 24-24 24h-32c-4.414062 0-8 3.585938-8 8s3.585938 8 8 8h32c13.230469 0 24 10.769531 24 24v24h-16v-24c0-4.414062-3.585938-8-8-8h-32c-13.230469 0-24-10.769531-24-24s10.769531-24 24-24h32c4.414062 0 8-3.585938 8-8s-3.585938-8-8-8h-64c-13.230469 0-24-10.769531-24-24s10.769531-24 24-24h104v-59.3125l5.089844-5.085938c23.007812-23.007812 51.703125-38.273437 82.910156-44.472656v-36.609375c-9.289062-3.3125-16-12.113281-16-22.527343h-32v24h-128v-95.992188h128v24h32c0-13.230469 10.769531-24 24-24h48c13.230469 0 24 10.769531 24 24h38.496094c8.3125-14.320312 23.785156-24 41.503906-24 26.472656 0 48 21.527344 48 48s-21.527344 48-48 48c-17.71875 0-33.191406-9.679688-41.503906-24h-38.496094c0 10.414062-6.710938 19.214844-16 22.527344v36.609375c31.207031 6.199219 59.902344 21.457031 82.910156 44.472656l5.089844 5.078125v107.3125h80c4.414062 0 8-3.585938 8-8s-3.585938-8-8-8h-16c-13.230469 0-24-10.769531-24-24s10.769531-24 24-24h40c4.414062 0 8-3.585938 8-8s-3.585938-8-8-8h-64c-13.230469 0-24-10.769531-24-24v-24h16v24c0 4.414062 3.585938 8 8 8h64c13.230469 0 24 10.769531 24 24zm-176 216v-16h32v-192h-208v192h160v16h-160v16h208v-16zm-176-240v16h208v-16h-152v-16h139.296875c-25.855469-20.695312-57.695313-32-91.296875-32s-65.441406 11.304688-91.296875 32h27.296875v16zm201.136719-152h14.863281v16h-14.863281c2.910156 11.191406 11.671875 19.960938 22.863281 22.863281v-14.863281h16v14.863281c11.191406-2.910156 19.960938-11.671875 22.863281-22.863281h-14.863281v-16h14.863281c-2.902343-11.191406-11.671875-19.960938-22.863281-22.863281v14.863281h-16v-14.863281c-11.191406 2.902343-19.960938 11.671875-22.863281 22.863281zm-49.136719 0v16h32.71875c-.4375-2.609375-.71875-5.273438-.71875-8s.28125-5.390625.71875-8zm-80 32c0 4.414062 3.585938 8 8 8h48c4.414062 0 8-3.585938 8-8v-48c0-4.414062-3.585938-8-8-8h-48c-4.414062 0-8 3.585938-8 8zm-64 0v-56h-96v64h96zm48-16v-16h-32v16zm32 72.777344c5.289062-.511719 10.625-.777344 16-.777344s10.710938.265625 16 .777344v-32.777344h-32zm118.527344 335.222656h-205.054688c3.3125 9.289062 12.113282 16 22.527344 16h160c10.414062 0 19.214844-6.710938 22.527344-16zm-238.527344-64h-16v16h16zm0 0" fill="url(#a)"/></svg>