<svg height="496pt" viewBox="0 0 496 496" width="496pt" xmlns="http://www.w3.org/2000/svg" xmlns:xlink="http://www.w3.org/1999/xlink"><linearGradient id="a" gradientUnits="userSpaceOnUse" x1="248" x2="248" y1="496" y2="0"><stop offset="0" stop-color="#9f2fff"/><stop offset="1" stop-color="#0bb1d3"/></linearGradient><path d="m32 376h144v-16h4.6875l4.289062 4.28125c7.550782 7.550781 17.597657 11.71875 28.28125 11.71875h18.742188v80c0 22.054688 17.945312 40 40 40h32c22.054688 0 40-17.945312 40-40v-81.472656c9.289062-3.3125 16-12.113282 16-22.527344 0-6.167969-2.40625-11.742188-6.238281-16 3.839843-4.257812 6.238281-9.832031 6.238281-16s-2.40625-11.742188-6.238281-16c3.839843-4.257812 6.238281-9.832031 6.238281-16s-2.40625-11.742188-6.238281-16c3.839843-4.257812 6.238281-9.832031 6.238281-16 0-10.414062-6.710938-19.214844-16-22.527344v-33.472656c5.855469 0 11.273438-1.695312 16-4.449219v92.449219c0 13.230469 10.769531 24 24 24s24-10.769531 24-24v-112.496094c14.214844-1.761718 27.335938-8.199218 37.566406-18.566406 12.121094-12.289062 18.664063-28.570312 18.425782-45.847656-.472657-34.304688-28.777344-62.609375-63.089844-63.089844-4.046875-.039062-8.167969.296875-12.261719 1.039062-10.167969-12.0625-25.328125-18.832031-41.878906-16.703124-9.082031-19.601563-28.671875-32.335938-50.761719-32.335938-30.878906 0-56 25.121094-56 56 0 2.070312.128906 4.167969.367188 6.289062-14.992188 8.429688-24.367188 24.183594-24.367188 41.710938 0 12.464844 4.816406 23.800781 12.632812 32.34375-16.046874 1.703125-28.632812 15.167969-28.632812 31.65625 0 17.648438 14.351562 32 32 32v32h-18.742188c-10.683593 0-20.730468 4.160156-28.28125 11.710938l-4.289062 4.289062h-4.6875v-16h-144zm272 104h-32c-13.230469 0-24-10.769531-24-24v-176h32v8c0 6.167969 2.40625 11.742188 6.238281 16-3.839843 4.257812-6.238281 9.832031-6.238281 16s2.40625 11.742188 6.238281 16c-3.839843 4.257812-6.238281 9.832031-6.238281 16 0 13.230469 10.769531 24 24 24h24v24h-32v16h32v16h-48v16h48v8c0 13.230469-10.769531 24-24 24zm32-232c4.40625 0 8 3.59375 8 8 0 4.414062-3.59375 8-8 8h-8v-8c0-2.816406-.574219-5.488281-1.472656-8zm-8 40v-8h8c4.40625 0 8 3.585938 8 8s-3.59375 8-8 8h-9.472656c.898437-2.511719 1.472656-5.183594 1.472656-8zm-16 24h24c4.40625 0 8 3.585938 8 8s-3.59375 8-8 8h-32c-4.40625 0-8-3.585938-8-8s3.59375-8 8-8zm24 48h-32c-4.40625 0-8-3.585938-8-8s3.59375-8 8-8h32c4.40625 0 8 3.585938 8 8s-3.59375 8-8 8zm-83.769531-285.679688 6.402343-2.542968-1.554687-6.707032c-.71875-3.078124-1.078125-6.132812-1.078125-9.070312 0-22.054688 17.945312-40 40-40 17.511719 0 32.839844 11.214844 38.128906 27.910156l2.304688 7.28125 7.375-1.96875c3.144531-.832031 5.742187-1.222656 8.191406-1.222656 10.753906 0 20.71875 5.382812 26.6875 14.398438l3.183594 4.824218 5.578125-1.503906c4.414062-1.207031 8.816406-1.824219 13.230469-1.71875 25.296874.351562 46.960937 22.015625 47.3125 47.3125.175781 12.960938-4.726563 25.167969-13.824219 34.390625-9.078125 9.21875-21.222657 14.296875-34.167969 14.296875h-8v128c0 4.414062-3.59375 8-8 8s-8-3.585938-8-8v-120c0-17.648438-14.351562-32-32-32h-80c-17.648438 0-32-14.351562-32-32 0-13.152344 7.945312-24.808594 20.230469-29.679688zm-4.230469 125.679688h48v-16h-64c-8.824219 0-16-7.175781-16-16s7.175781-16 16-16h112c8.824219 0 16 7.175781 16 16s-7.175781 16-16 16h-16v48h-80zm-60.6875 64 8.976562-8.976562c4.464844-4.464844 10.648438-7.023438 16.96875-7.023438h90.742188c4.40625 0 8 3.59375 8 8v32c0 4.414062-3.59375 8-8 8s-8-3.585938-8-8v-24h-64v96h-18.742188c-6.320312 0-12.496093-2.558594-16.96875-7.03125l-8.976562-8.96875h-11.3125v-80zm-139.3125-16h48v80h16v-80h16v16h16v-16h16v112h-16v-80h-16v80h-16v-16h-16v16h-48zm352-152v-16c17.648438 0 32 14.351562 32 32h-16c0-8.824219-7.175781-16-16-16zm-144 16c0-4.414062 3.585938-8 8-8s8 3.585938 8 8-3.585938 8-8 8-8-3.585938-8-8zm32-72c0-4.414062 3.585938-8 8-8s8 3.585938 8 8-3.585938 8-8 8-8-3.585938-8-8zm16 40c4.414062 0 8 3.585938 8 8s-3.585938 8-8 8-8-3.585938-8-8 3.585938-8 8-8zm40 0c0-4.414062 3.585938-8 8-8s8 3.585938 8 8-3.585938 8-8 8-8-3.585938-8-8zm24 40c0-4.414062 3.585938-8 8-8s8 3.585938 8 8-3.585938 8-8 8-8-3.585938-8-8zm-48-8c0-4.414062 3.585938-8 8-8s8 3.585938 8 8-3.585938 8-8 8-8-3.585938-8-8zm32 368h16v16h-16zm144-72c0 13.230469-10.769531 24-24 24h-32c-4.40625 0-8 3.585938-8 8s3.59375 8 8 8h16c13.230469 0 24 10.769531 24 24s-10.769531 24-24 24h-72v-16h72c4.40625 0 8-3.585938 8-8s-3.59375-8-8-8h-16c-13.230469 0-24-10.769531-24-24s10.769531-24 24-24h32c4.40625 0 8-3.585938 8-8s-3.59375-8-8-8h-72c-13.230469 0-24-10.769531-24-24v-16h16v16c0 4.414062 3.59375 8 8 8h72c13.230469 0 24 10.769531 24 24zm-496 64c0-13.230469 10.769531-24 24-24h120c4.40625 0 8-3.585938 8-8s-3.59375-8-8-8h-56c-13.230469 0-24-10.769531-24-24v-16h16v16c0 4.414062 3.59375 8 8 8h56c13.230469 0 24 10.769531 24 24s-10.769531 24-24 24h-120c-4.40625 0-8 3.585938-8 8s3.59375 8 8 8h136v16h-136c-13.230469 0-24-10.769531-24-24zm176 8h16v16h-16zm32 0h16v16h-16zm0 0" fill="url(#a)"/></svg>