<svg height="496pt" viewBox="0 0 496.00783 496" width="496pt" xmlns="http://www.w3.org/2000/svg" xmlns:xlink="http://www.w3.org/1999/xlink"><linearGradient id="a" gradientUnits="userSpaceOnUse" x1="248.0008" x2="248.0008" y1="496.003915" y2=".003915"><stop offset="0" stop-color="#9f2fff"/><stop offset="1" stop-color="#0bb1d3"/></linearGradient><path d="m464 304.003906h-16v-80h-16v-42.167968c0-3.214844 2.617188-5.832032 5.832031-5.832032 30.832031 0 56.910157-24.070312 58.128907-53.664062 1.0625-25.96875-15.730469-48.816406-40.007813-55.976563.03125-.800781.046875-1.574219.046875-2.359375 0-35.289062-28.710938-63.99999975-64-63.99999975-17.398438 0-33.785156 7.15234375-45.726562 19.38281275-10.273438-11.847657-25.402344-19.38281275-42.273438-19.38281275-24.878906 0-46.695312 16.80078175-53.648438 40.12109375-.785156-.03125-1.558593-.121094-2.351562-.121094-24.855469 0-46.671875 16.753906-53.625 40.0625-14.390625-.789062-28.277344 5.082032-37.894531 15.65625-6.753907 7.417969-10.9375 16.777344-12.113281 26.640625-18.351563 5.3125-32.632813 19.488281-38 37.769531-.792969-.039062-1.566407-.128906-2.367188-.128906-24.855469 0-46.671875 16.753906-53.625 40.0625-14.40625-.742187-28.277344 5.082032-37.894531 15.65625-9.082031 9.984375-13.535157 23.457032-12.25 36.976563 2.304687 24.28125 24.050781 43.304687 49.488281 43.304687h142.28125v-16h-142.28125c-17.277344 0-32.023438-12.664062-33.566406-28.832031-.871094-9.167969 2.023437-17.9375 8.160156-24.6875 6.0625-6.65625 14.6875-10.480469 23.6875-10.480469 2.183594 0 4.441406.257813 6.863281.785156l8.367188 1.824219 1.25-8.472656c2.871093-19.464844 19.863281-34.136719 39.519531-34.136719 22.054688 0 40 17.945313 40 40h16c0-24.511718-15.855469-45.34375-37.832031-52.910156 3.769531-11.128906 12.246093-19.921875 23.144531-24.210938 5.085938 21.242188 25.183594 37.121094 48.40625 37.121094h78.28125v-16h-78.28125c-17.277344 0-32.023438-12.664062-33.566406-28.832031-.863282-9.167969 2.03125-17.945313 8.167968-24.6875 6.054688-6.65625 14.679688-10.480469 23.679688-10.480469 2.183594 0 4.441406.257813 6.863281.785156l8.367188 1.824219 1.25-8.472656c2.871093-19.464844 19.863281-34.136719 39.519531-34.136719 22.054688 0 40 17.945313 40 40h16c0-24.519531-15.863281-45.351562-37.847656-52.921875 5.449218-15.832031 20.632812-27.078125 37.847656-27.078125 22.054688 0 40 17.945313 40 40h16c0-8.070312-1.753906-15.726562-4.839844-22.671875 9.078125-10.894531 22.511719-17.328125 36.839844-17.328125 26.472656 0 48 21.527344 48 48 0 2.214844-.199219 4.566406-.632812 7.398438l-1.207032 7.914062 7.910156 1.207032c20.160157 3.074218 34.730469 20.769531 33.898438 41.167968-.863281 21.128906-19.777344 38.3125-42.136719 38.3125-12.039062 0-21.832031 9.792969-21.832031 21.832032v42.167968h-16v-40c0-13.230468-10.769531-24-24-24h-24v16h24c4.414062 0 8 3.59375 8 8v40h-16v80h-32v-80h-16v-32h-16v32h-48v80h-16v48h-32v144h288v-144h-32zm-32-64v16h-48v-16zm-48 32h48v32h-48zm-64-32v16h-48v-16zm-48 32h48v32h-48zm-16 48h192v32h-192zm112 160h-32v-80h32zm112 0h-96v-96h-64v96h-96v-112h256zm-64-16h-16v-16h16zm32 0h-16v-16h16zm-32-32h-16v-16h16zm32 0h-16v-16h16zm-32-32h-16v-16h16zm32 0h-16v-16h16zm-176 64h-16v-16h16zm32 0h-16v-16h16zm-32-32h-16v-16h16zm32 0h-16v-16h16zm-32-32h-16v-16h16zm32 0h-16v-16h16zm32-224h-16v-16h16zm-32 0h-16v-16h16zm-112-160v16h-16v-16zm-48 0h16v16h-16zm-32 0h16v16h-16zm-32 0h16v16h-16zm-32 0h16v16h-16zm112 32h16v16h-16zm-32 0h16v16h-16zm-32 0h16v16h-16zm-32 0h16v16h-16zm-32 0h16v16h-16zm80 32h16v16h-16zm-32 0h16v16h-16zm-32 0h16v16h-16zm-32 0h16v16h-16zm80 32h16v16h-16zm-32 0h16v16h-16zm-32 0h16v16h-16zm-16 16h-16v-16h16zm96 184h16v16h-16zm-64 0h16v16h-16zm48 32h16v16h-16zm-32 0h16v16h-16zm-32 0h16v16h-16zm80 32h16v16h-16zm-32 0h16v16h-16zm-32 0h16v16h-16zm-32 0h16v16h-16zm80 32h16v16h-16zm-64 0h16v16h-16zm-16 16h-16v-16h16zm176-96h-16v-16h16zm-32 16h16v16h-16zm-16-32h16v16h-16zm0 48h-16v-16h16zm32 16h16v16h-16zm-16 32h16v16h-16zm-32 0h16v16h-16zm96-128v16h-16v-16zm0 0" fill="url(#a)"/></svg>