<svg height="496pt" viewBox="0 0 496 496" width="496pt" xmlns="http://www.w3.org/2000/svg" xmlns:xlink="http://www.w3.org/1999/xlink"><linearGradient id="a" gradientUnits="userSpaceOnUse" x1="248" x2="248" y1="496" y2="0"><stop offset="0" stop-color="#9f2fff"/><stop offset="1" stop-color="#0bb1d3"/></linearGradient><path d="m248 128c-48.519531 0-88 39.480469-88 88s39.480469 88 88 88 88-39.480469 88-88-39.480469-88-88-88zm0 160c-39.703125 0-72-32.304688-72-72s32.296875-72 72-72 72 32.304688 72 72-32.296875 72-72 72zm120-227.679688c-28.960938-30.640624-60.542969-60.320312-120-60.320312s-91.039062 29.679688-120 60.320312c-28.960938-30.640624-60.542969-60.320312-120-60.320312h-8v144h8c59.457031 0 91.039062-29.679688 120-60.320312 13.351562 14.128906 27.449219 28.128906 44.609375 39.089843-27.175781 22.015625-44.609375 55.613281-44.609375 93.230469 0 57.953125 41.289062 106.433594 96 117.585938v18.414062h-16v104c0 22.054688 17.945312 40 40 40s40-17.945312 40-40v-104h-16v-18.414062c54.710938-11.152344 96-59.632813 96-117.585938 0-37.625-17.433594-71.214844-44.609375-93.230469 17.160156-10.960937 31.257813-24.960937 44.609375-39.089843 28.960938 30.640624 60.542969 60.320312 120 60.320312h8v-144h-8c-59.457031 0-91.039062 29.679688-120 60.320312zm-304-31.769531v86.90625c-5.039062 2.527344-10.335938 4.765625-16 6.605469v-100.117188c5.664062 1.832032 10.960938 4.070313 16 6.605469zm-48-12.34375c5.625.296875 10.929688.929688 16 1.816407v107.960937c-5.070312.886719-10.375 1.519531-16 1.816406zm64 89.640625v-67.695312c13.601562 9.589844 25.328125 21.449218 37.023438 33.847656-11.695313 12.398438-23.421876 24.257812-37.023438 33.847656zm192-7.433594v-80.351562c5.640625.984375 10.960938 2.3125 16 3.945312v81c-5.199219-1.855468-10.503906-3.472656-16-4.59375zm-16-82.167968v80.152344c-2.65625-.167969-5.296875-.398438-8-.398438s-5.34375.230469-8 .40625v-80.160156c2.617188-.132813 5.257812-.246094 8-.246094s5.382812.113281 8 .246094zm-48 86.753906v-81c5.039062-1.632812 10.359375-2.960938 16-3.945312v80.359374c-5.496094 1.121094-10.800781 2.738282-16 4.585938zm-69.023438-31c6.871094-7.289062 13.757813-14.382812 21.023438-20.953125v41.863281c-7.230469-6.535156-14.113281-13.582031-21.023438-20.910156zm37.023438 33.855469v-67.671875c5.039062-3.550782 10.34375-6.800782 16-9.640625v81.402343c-1.679688.886719-3.296875 1.878907-4.929688 2.847657-3.832031-2.152344-7.535156-4.441407-11.070312-6.9375zm96 262.144531v16h-48v-16zm-24 112c-13.230469 0-24-10.769531-24-24v-56h48v56c0 13.230469-10.769531 24-24 24zm8-128h-16v-16.40625c2.65625.175781 5.296875.40625 8 .40625s5.34375-.230469 8-.40625zm96-136c0 57.34375-46.65625 104-104 104s-104-46.65625-104-104 46.65625-104 104-104 104 46.65625 104 104zm-48-106.046875v-81.410156c5.65625 2.839843 10.960938 6.082031 16 9.640625v67.671875c-3.535156 2.488281-7.246094 4.785156-11.078125 6.945312-1.632813-.96875-3.242187-1.960937-4.921875-2.847656zm32-17.042969v-41.863281c7.265625 6.570313 14.152344 13.664063 21.023438 20.953125-6.910157 7.328125-13.792969 14.375-21.023438 20.910156zm112-70.964844v100.109376c-5.664062-1.832032-10.960938-4.070313-16-6.605469v-86.90625c5.039062-2.527344 10.335938-4.765625 16-6.597657zm-69.023438 50.054688c11.695313-12.398438 23.421876-24.257812 37.023438-33.847656v67.695312c-13.601562-9.589844-25.328125-21.449218-37.023438-33.847656zm101.023438 55.792969c-5.625-.296875-10.929688-.929688-16-1.816407v-107.960937c5.070312-.886719 10.375-1.519531 16-1.816406zm-432 128.207031h-16v-64h16zm48-64h-16c-8.824219 0-16 7.175781-16 16v32c0 8.824219 7.175781 16 16 16h16c8.824219 0 16-7.175781 16-16v-32c0-8.824219-7.175781-16-16-16zm-16 48v-32h16l.007812 32zm96 112v64h-16v-64zm240-160h-16c-8.824219 0-16 7.175781-16 16v32c0 8.824219 7.175781 16 16 16h16c8.824219 0 16-7.175781 16-16v-32c0-8.824219-7.175781-16-16-16zm-16 48v-32h16l.007812 32zm64 16h-16v-64h16zm-352 80h-16v-64h16zm-80-16c0 8.824219 7.175781 16 16 16h16c8.824219 0 16-7.175781 16-16v-32c0-8.824219-7.175781-16-16-16h-16c-8.824219 0-16 7.175781-16 16zm16-32h16l.007812 32h-16.007812zm368 64h16v64h-16zm32 0h16v64h-16zm-112 0v64h-16v-64zm32 0c-8.824219 0-16 7.175781-16 16v32c0 8.824219 7.175781 16 16 16h16c8.824219 0 16-7.175781 16-16v-32c0-8.824219-7.175781-16-16-16zm0 48v-32h16l.007812 32zm-336-48h16v64h-16zm32 0h16v64h-16zm32 48c0 8.824219 7.175781 16 16 16h16c8.824219 0 16-7.175781 16-16v-32c0-8.824219-7.175781-16-16-16h-16c-8.824219 0-16 7.175781-16 16zm16-32h16l.007812 32h-16.007812zm272-96h16v64h-16zm48 0c-8.824219 0-16 7.175781-16 16v32c0 8.824219 7.175781 16 16 16h16c8.824219 0 16-7.175781 16-16v-32c0-8.824219-7.175781-16-16-16zm0 48v-32h16l.007812 32zm0 0" fill="url(#a)"/></svg>