<svg height="496pt" viewBox="0 0 496 496" width="496pt" xmlns="http://www.w3.org/2000/svg" xmlns:xlink="http://www.w3.org/1999/xlink"><linearGradient id="a" gradientUnits="userSpaceOnUse" x1="248" x2="248" y1="496" y2="0"><stop offset="0" stop-color="#9f2fff"/><stop offset="1" stop-color="#0bb1d3"/></linearGradient><path d="m216 352h64c13.230469 0 24-10.769531 24-24v-20l3.199219-2.398438c18.03125-13.523437 28.800781-35.058593 28.800781-57.601562 0-39.695312-32.304688-72-72-72h-32c-39.695312 0-72 32.304688-72 72 0 22.542969 10.769531 44.070312 28.800781 57.601562l3.199219 2.398438v20c0 13.230469 10.769531 24 24 24zm-40-104c0-30.878906 25.121094-56 56-56h32c30.878906 0 56 25.121094 56 56 0 17.527344-8.375 34.28125-22.398438 44.800781l-9.601562 7.199219v28c0 4.40625-3.59375 8-8 8h-8v-24h-16v24h-16v-24h-16v24h-8c-4.40625 0-8-3.59375-8-8v-28l-9.601562-7.199219c-14.023438-10.519531-22.398438-27.273437-22.398438-44.800781zm95.03125 10.34375c3.648438 3.648438 8.496094 5.65625 13.65625 5.65625 10.648438 0 19.3125-8.664062 19.3125-19.3125v-9.375c0-10.648438-8.664062-19.3125-19.3125-19.3125h-9.375c-10.648438 0-19.3125 8.664062-19.3125 19.3125 0 5.160156 2.007812 10.007812 5.65625 13.65625zm4.28125-26.34375h9.375c1.824219 0 3.3125 1.488281 3.3125 3.3125v9.375c0 2.703125-3.753906 4.25-5.65625 2.34375l-9.375-9.375c-.617188-.617188-.96875-1.472656-.96875-2.34375 0-1.824219 1.488281-3.3125 3.3125-3.3125zm-64 32c5.160156 0 10.007812-2.007812 13.65625-5.65625l9.375-9.375c3.648438-3.648438 5.65625-8.496094 5.65625-13.65625 0-10.648438-8.664062-19.3125-19.3125-19.3125h-9.375c-10.648438 0-19.3125 8.664062-19.3125 19.3125v9.375c0 10.648438 8.664062 19.3125 19.3125 19.3125zm-3.3125-28.6875c0-1.824219 1.488281-3.3125 3.3125-3.3125h9.375c1.824219 0 3.3125 1.488281 3.3125 3.3125 0 .871094-.351562 1.726562-.96875 2.34375l-9.375 9.375c-1.914062 1.90625-5.65625.359375-5.65625-2.34375zm64 244.6875h16v16h-16zm200-120h-56v-210.425781l-32.574219-48.855469-12.632812-50.535156c-2.671875-10.703125-12.25-18.183594-23.289063-18.183594h-103.007812c-11.03125 0-20.609375 7.480469-23.289063 18.175781l-11.453125 45.824219h-33.753906v-16c8.824219 0 16-7.175781 16-16v-16c0-8.824219-7.175781-16-16-16v-8c0-13.230469-10.769531-24-24-24h-48c-13.230469 0-24 10.769531-24 24v8c-8.824219 0-16 7.175781-16 16v16c0 8.824219 7.175781 16 16 16v256h16v-176h304v214.0625c-13.703125 25.921875-40.222656 41.9375-69.664062 41.9375h-164.671876c-29.441406 0-55.960937-16.015625-69.664062-41.9375v-22.0625h-72c-13.230469 0-24 10.769531-24 24s10.769531 24 24 24h24c4.40625 0 8 3.59375 8 8s-3.59375 8-8 8h-8c-13.230469 0-24 10.769531-24 24s10.769531 24 24 24h56c11.113281 0 16.160156 3.023438 22.535156 6.855469 7.136719 4.289062 15.234375 9.144531 30.777344 9.144531 15.550781 0 23.648438-4.855469 30.785156-9.144531 6.390625-3.832031 11.4375-6.855469 22.558594-6.855469s16.167969 3.023438 22.550781 6.855469c7.144531 4.289062 15.242188 9.144531 30.792969 9.144531v-16c-11.121094 0-16.167969-3.023438-22.550781-6.855469-7.144531-4.289062-15.242188-9.144531-30.792969-9.144531s-23.648438 4.855469-30.792969 9.144531c-6.382812 3.832031-11.429687 6.855469-22.550781 6.855469-11.113281 0-16.152344-3.023438-22.535156-6.855469-7.136719-4.289062-15.234375-9.144531-30.777344-9.144531h-56c-4.40625 0-8-3.59375-8-8s3.59375-8 8-8h8c13.230469 0 24-10.769531 24-24s-10.769531-24-24-24h-24c-4.40625 0-8-3.59375-8-8s3.59375-8 8-8h56v9.886719l.839844 1.6875c16.167968 32.335937 48.671875 52.425781 84.824218 52.425781h164.671876c36.152343 0 68.65625-20.089844 84.824218-52.425781l.839844-1.6875v-1.886719h56c4.40625 0 8 3.59375 8 8s-3.59375 8-8 8h-24c-13.230469 0-24 10.769531-24 24s10.769531 24 24 24h8c4.40625 0 8 3.59375 8 8s-3.59375 8-8 8h-36c-14.617188 0-29.105469 4.832031-40.800781 13.601562-8.941407 6.703126-20.023438 10.398438-31.199219 10.398438h-44v16h44c14.617188 0 29.105469-4.832031 40.800781-13.601562 8.941407-6.703126 20.023438-10.398438 31.199219-10.398438h36c13.230469 0 24-10.769531 24-24s-10.769531-24-24-24h-8c-4.40625 0-8-3.59375-8-8s3.59375-8 8-8h24c13.230469 0 24-10.769531 24-24s-10.769531-24-24-24zm-301.785156-248h201.503906l21.335938 32h-276.167969zm89.015625-16 4-16h65.539062l4 16zm-22.503907-41.9375c.898438-3.566406 4.089844-6.0625 7.769532-6.0625h103.015625c3.679687 0 6.871093 2.496094 7.761719 6.0625l10.480468 41.9375h-16.488281l-8-32h-90.53125l-8 32h-16.488281zm-140.726562-30.0625c0-4.40625 3.59375-8 8-8h48c4.40625 0 8 3.59375 8 8v8h-64zm-16 24h96v16h-96zm16 32h64v19.472656l-64 38.398438zm-96 216c0 13.230469 10.769531 24 24 24s24-10.769531 24-24-10.769531-24-24-24-24 10.769531-24 24zm24-8c4.40625 0 8 3.59375 8 8s-3.59375 8-8 8-8-3.59375-8-8 3.59375-8 8-8zm448-72c-13.230469 0-24 10.769531-24 24s10.769531 24 24 24 24-10.769531 24-24-10.769531-24-24-24zm0 32c-4.40625 0-8-3.59375-8-8s3.59375-8 8-8 8 3.59375 8 8-3.59375 8-8 8zm0 48c-13.230469 0-24 10.769531-24 24s10.769531 24 24 24 24-10.769531 24-24-10.769531-24-24-24zm0 32c-4.40625 0-8-3.59375-8-8s3.59375-8 8-8 8 3.59375 8 8-3.59375 8-8 8zm-408-104c0-13.230469-10.769531-24-24-24s-24 10.769531-24 24 10.769531 24 24 24 24-10.769531 24-24zm-32 0c0-4.40625 3.59375-8 8-8s8 3.59375 8 8-3.59375 8-8 8-8-3.59375-8-8zm0 0" fill="url(#a)"/></svg>